<svg xmlns="http://www.w3.org/2000/svg" xmlns:xlink="http://www.w3.org/1999/xlink" viewBox="0 0 26 27">
  <defs>    
    <path id="b" d="M0 0h320v50H0z"/>
  </defs>
    <path fill="#3F3F3F" d="M17.352 15.639a148.474 148.474 0 003.907 4.528l1.136 1.257.572.623.275.31c.063.067.12.138.17.214.423.634.265 1.5-.351 1.935a1.322 1.322 0 01-1.55-.014l-2.34-2.244a175.827 175.827 0 00-4.402-4.017 9.305 9.305 0 001.54-1.31c.383-.397.731-.826 1.043-1.282zm-7.876 2.448a7.96 7.96 0 01-5.673-2.021 8.6 8.6 0 01-2.827-5.621.538.538 0 00-.515-.493.502.502 0 00-.46.538v.098a9.686 9.686 0 002.886 6.63c2.95 2.874 7.347 3.508 10.952 1.58a199.742 199.742 0 004.113 4.783l1.139 1.254.572.623.275.308c.133.143.277.274.432.39 1.467 1.127 3.545.815 4.64-.695a3.49 3.49 0 00-.029-4.116 7.574 7.574 0 00-.674-.708l-.606-.588-1.232-1.181a174.694 174.694 0 00-4.57-4.16c2.054-3.874 1.382-8.675-1.65-11.795A9.465 9.465 0 009.519 0a9.342 9.342 0 00-6.686 2.757A9.649 9.649 0 00.018 9.409a.486.486 0 00.443.543.524.524 0 00.503-.495V9.38A8.61 8.61 0 013.85 3.796a7.956 7.956 0 015.69-1.981c4.364.24 7.713 4.076 7.48 8.567-.218 4.181-3.483 7.512-7.55 7.7l.006.005z"/>
</svg>